<svg width="65" height="65" viewBox="0 0 65 65" fill="none" xmlns="http://www.w3.org/2000/svg">
<path d="M23.3012 64.7717L22.0268 54.5254C21.3365 54.2586 20.686 53.9384 20.0754 53.5648C19.4647 53.1913 18.8673 52.791 18.2832 52.3641L8.80483 56.3665L0.0432739 41.1573L8.24727 34.9135C8.19417 34.5399 8.16762 34.1797 8.16762 33.8328V31.6715C8.16762 31.3246 8.19417 30.9644 8.24727 30.5908L0.0432739 24.347L8.80483 9.13778L18.2832 13.1402C18.8673 12.7133 19.478 12.3131 20.1152 11.9395C20.7524 11.5659 21.3896 11.2457 22.0268 10.9789L23.3012 0.732666H40.8243L42.0987 10.9789C42.789 11.2457 43.4395 11.5659 44.0502 11.9395C44.6608 12.3131 45.2582 12.7133 45.8423 13.1402L55.3207 9.13778L64.0823 24.347L55.8783 30.5908C55.9314 30.9644 55.9579 31.3246 55.9579 31.6715V33.8328C55.9579 34.1797 55.9048 34.5399 55.7986 34.9135L64.0026 41.1573L55.2411 56.3665L45.8423 52.3641C45.2582 52.791 44.6475 53.1913 44.0103 53.5648C43.3731 53.9384 42.7359 54.2586 42.0987 54.5254L40.8243 64.7717H23.3012ZM28.8768 58.3678H35.1691L36.2842 49.8826C37.9304 49.4557 39.457 48.8286 40.8642 48.0014C42.2713 47.1743 43.559 46.1737 44.7272 44.9996L52.6126 48.2816L55.719 42.8383L48.869 37.6351C49.1345 36.888 49.3204 36.1009 49.4266 35.2737C49.5328 34.4465 49.5859 33.606 49.5859 32.7522C49.5859 31.8983 49.5328 31.0578 49.4266 30.2306C49.3204 29.4035 49.1345 28.6163 48.869 27.8692L55.719 22.666L52.6126 17.2227L44.7272 20.5848C43.559 19.3573 42.2713 18.33 40.8642 17.5029C39.457 16.6757 37.9304 16.0487 36.2842 15.6217L35.2488 7.13657H28.9564L27.8413 15.6217C26.1952 16.0487 24.6686 16.6757 23.2614 17.5029C21.8542 18.33 20.5666 19.3307 19.3983 20.5047L11.5129 17.2227L8.40658 22.666L15.2565 27.7891C14.991 28.5896 14.8052 29.3901 14.699 30.1906C14.5928 30.9911 14.5397 31.8449 14.5397 32.7522C14.5397 33.606 14.5928 34.4332 14.699 35.2337C14.8052 36.0342 14.991 36.8346 15.2565 37.6351L8.40658 42.8383L11.5129 48.2816L19.3983 44.9196C20.5666 46.147 21.8542 47.1743 23.2614 48.0014C24.6686 48.8286 26.1952 49.4557 27.8413 49.8826L28.8768 58.3678ZM32.2221 43.959C35.3019 43.959 37.9304 42.865 40.1075 40.677C42.2846 38.489 43.3731 35.8474 43.3731 32.7522C43.3731 29.6569 42.2846 27.0153 40.1075 24.8273C37.9304 22.6393 35.3019 21.5453 32.2221 21.5453C29.0892 21.5453 26.4474 22.6393 24.2968 24.8273C22.1463 27.0153 21.071 29.6569 21.071 32.7522C21.071 35.8474 22.1463 38.489 24.2968 40.677C26.4474 42.865 29.0892 43.959 32.2221 43.959Z" fill="#65029A"/>
</svg>
