<svg width="65" height="65" viewBox="0 0 65 65" fill="none" xmlns="http://www.w3.org/2000/svg">
<path d="M18.1675 54.0985H23.5041V46.9831H30.6195V41.6465H23.5041V34.531H18.1675V41.6465H11.0521V46.9831H18.1675V54.0985ZM35.9561 51.4302H53.7447V46.0936H35.9561V51.4302ZM35.9561 42.5359H53.7447V37.1993H35.9561V42.5359ZM39.8696 29.0166L44.8504 24.0357L49.8312 29.0166L53.5668 25.2809L48.586 20.1223L53.5668 15.1414L49.8312 11.4058L44.8504 16.3866L39.8696 11.4058L36.134 15.1414L41.1148 20.1223L36.134 25.2809L39.8696 29.0166ZM11.9415 22.7905H29.7301V17.454H11.9415V22.7905ZM7.49435 64.7717C5.5376 64.7717 3.86251 64.0749 2.46907 62.6815C1.07563 61.2881 0.378906 59.613 0.378906 57.6562V7.84811C0.378906 5.89136 1.07563 4.21627 2.46907 2.82283C3.86251 1.42939 5.5376 0.732666 7.49435 0.732666H57.3025C59.2592 0.732666 60.9343 1.42939 62.3277 2.82283C63.7212 4.21627 64.4179 5.89136 64.4179 7.84811V57.6562C64.4179 59.613 63.7212 61.2881 62.3277 62.6815C60.9343 64.0749 59.2592 64.7717 57.3025 64.7717H7.49435ZM7.49435 57.6562H57.3025V7.84811H7.49435V57.6562Z" fill="#65029A"/>
</svg>
